<svg xmlns="http://www.w3.org/2000/svg" viewBox="0 0 24 24" width="24" height="24" fill="#888C94">
  <path fill-rule="evenodd" clip-rule="evenodd" d="M5.5 3.25C4.25736 3.25 3.25 4.25736 3.25 5.5V8.99998C3.25 10.2426 4.25736 11.25 5.5 11.25H9C10.2426 11.25 11.25 10.2426 11.25 8.99998V5.5C11.25 4.25736 10.2426 3.25 9 3.25H5.5ZM14.25 5.5C14.25 5.08579 14.5858 4.75 15 4.75H18.5C18.9142 4.75 19.25 5.08579 19.25 5.5V8.99998C19.25 9.41419 18.9142 9.74998 18.5 9.74998H15C14.5858 9.74998 14.25 9.41419 14.25 8.99998V5.5ZM5.5 12.75C4.25736 12.75 3.25 13.7574 3.25 15V18.5C3.25 19.7426 4.25736 20.75 5.5 20.75H9C10.2426 20.75 11.25 19.7427 11.25 18.5V15C11.25 13.7574 10.2426 12.75 9 12.75H5.5ZM14 13.25C13.5858 13.25 13.25 13.5858 13.25 14C13.25 14.4142 13.5858 14.75 14 14.75H16.19L13.47 17.47C13.1771 17.7629 13.1771 18.2371 13.47 18.53C13.7629 18.8229 14.2371 18.8229 14.53 18.53L17.25 15.81V18C17.25 18.4142 17.5858 18.75 18 18.75C18.4142 18.75 18.75 18.4142 18.75 18V14C18.75 13.5858 18.4142 13.25 18 13.25H14Z"/>
</svg>